<svg xmlns="http://www.w3.org/2000/svg" xmlns:xlink="http://www.w3.org/1999/xlink" contentStyleType="text/css" height="266px" preserveAspectRatio="none" style="width:906px;height:266px;background:#FFFFFF;" version="1.1" viewBox="0 0 906 266" width="906px" zoomAndPan="magnify"><defs/><g><line style="stroke:#181818;stroke-width:0.5;stroke-dasharray:5.0,5.0;" x1="94" x2="94" y1="36.2969" y2="231.0938"/><line style="stroke:#181818;stroke-width:0.5;stroke-dasharray:5.0,5.0;" x1="264.8184" x2="264.8184" y1="36.2969" y2="231.0938"/><line style="stroke:#181818;stroke-width:0.5;stroke-dasharray:5.0,5.0;" x1="535.8892" x2="535.8892" y1="36.2969" y2="231.0938"/><line style="stroke:#181818;stroke-width:0.5;stroke-dasharray:5.0,5.0;" x1="649.1772" x2="649.1772" y1="36.2969" y2="231.0938"/><line style="stroke:#181818;stroke-width:0.5;stroke-dasharray:5.0,5.0;" x1="876.8638" x2="876.8638" y1="36.2969" y2="231.0938"/><rect fill="#E2E2F0" height="30.2969" rx="2.5" ry="2.5" style="stroke:#181818;stroke-width:0.5;" width="178.4453" x="5" y="5"/><text fill="#000000" font-family="sans-serif" font-size="14" lengthAdjust="spacing" textLength="164.4453" x="12" y="24.9951">PresenceDetectionTask</text><rect fill="#E2E2F0" height="30.2969" rx="2.5" ry="2.5" style="stroke:#181818;stroke-width:0.5;" width="178.4453" x="5" y="230.0938"/><text fill="#000000" font-family="sans-serif" font-size="14" lengthAdjust="spacing" textLength="164.4453" x="12" y="250.0889">PresenceDetectionTask</text><rect fill="#E2E2F0" height="30.2969" rx="2.5" ry="2.5" style="stroke:#181818;stroke-width:0.5;" width="71.1621" x="229.8184" y="5"/><text fill="#000000" font-family="sans-serif" font-size="14" lengthAdjust="spacing" textLength="57.1621" x="236.8184" y="24.9951">GVLnew</text><rect fill="#E2E2F0" height="30.2969" rx="2.5" ry="2.5" style="stroke:#181818;stroke-width:0.5;" width="71.1621" x="229.8184" y="230.0938"/><text fill="#000000" font-family="sans-serif" font-size="14" lengthAdjust="spacing" textLength="57.1621" x="236.8184" y="250.0889">GVLnew</text><rect fill="#E2E2F0" height="30.2969" rx="2.5" ry="2.5" style="stroke:#181818;stroke-width:0.5;" width="157.2881" x="457.8892" y="5"/><text fill="#000000" font-family="sans-serif" font-size="14" lengthAdjust="spacing" textLength="143.2881" x="464.8892" y="24.9951">lightTurnOnFunction</text><rect fill="#E2E2F0" height="30.2969" rx="2.5" ry="2.5" style="stroke:#181818;stroke-width:0.5;" width="157.2881" x="457.8892" y="230.0938"/><text fill="#000000" font-family="sans-serif" font-size="14" lengthAdjust="spacing" textLength="143.2881" x="464.8892" y="250.0889">lightTurnOnFunction</text><rect fill="#E2E2F0" height="30.2969" rx="2.5" ry="2.5" style="stroke:#181818;stroke-width:0.5;" width="48.9385" x="625.1772" y="5"/><text fill="#000000" font-family="sans-serif" font-size="14" lengthAdjust="spacing" textLength="34.9385" x="632.1772" y="24.9951">Light</text><rect fill="#E2E2F0" height="30.2969" rx="2.5" ry="2.5" style="stroke:#181818;stroke-width:0.5;" width="48.9385" x="625.1772" y="230.0938"/><text fill="#000000" font-family="sans-serif" font-size="14" lengthAdjust="spacing" textLength="34.9385" x="632.1772" y="250.0889">Light</text><rect fill="#E2E2F0" height="30.2969" rx="2.5" ry="2.5" style="stroke:#181818;stroke-width:0.5;" width="45.9102" x="854.8638" y="5"/><text fill="#000000" font-family="sans-serif" font-size="14" lengthAdjust="spacing" textLength="31.9102" x="861.8638" y="24.9951">User</text><rect fill="#E2E2F0" height="30.2969" rx="2.5" ry="2.5" style="stroke:#181818;stroke-width:0.5;" width="45.9102" x="854.8638" y="230.0938"/><text fill="#000000" font-family="sans-serif" font-size="14" lengthAdjust="spacing" textLength="31.9102" x="861.8638" y="250.0889">User</text><polygon fill="#181818" points="253.3994,63.4297,263.3994,67.4297,253.3994,71.4297,257.3994,67.4297" style="stroke:#181818;stroke-width:1.0;"/><line style="stroke:#181818;stroke-width:1.0;" x1="94.2227" x2="259.3994" y1="67.4297" y2="67.4297"/><text fill="#000000" font-family="sans-serif" font-size="13" lengthAdjust="spacing" textLength="147.1768" x="101.2227" y="62.3638">Read distanceToMirror</text><polygon fill="#181818" points="524.5332,92.5625,534.5332,96.5625,524.5332,100.5625,528.5332,96.5625" style="stroke:#181818;stroke-width:1.0;"/><line style="stroke:#181818;stroke-width:1.0;" x1="94.2227" x2="530.5332" y1="96.5625" y2="96.5625"/><text fill="#000000" font-family="sans-serif" font-size="13" lengthAdjust="spacing" textLength="418.3105" x="101.2227" y="91.4966">Call lightTurnOn(GVLnew.lightStatus, GVLnew.distanceToMirror)</text><polygon fill="#181818" points="105.2227,121.6953,95.2227,125.6953,105.2227,129.6953,101.2227,125.6953" style="stroke:#181818;stroke-width:1.0;"/><line style="stroke:#181818;stroke-width:1.0;" x1="99.2227" x2="535.5332" y1="125.6953" y2="125.6953"/><text fill="#000000" font-family="sans-serif" font-size="13" lengthAdjust="spacing" textLength="151.9756" x="111.2227" y="120.6294">Return new light status</text><polygon fill="#181818" points="253.3994,150.8281,263.3994,154.8281,253.3994,158.8281,257.3994,154.8281" style="stroke:#181818;stroke-width:1.0;"/><line style="stroke:#181818;stroke-width:1.0;" x1="94.2227" x2="259.3994" y1="154.8281" y2="154.8281"/><text fill="#000000" font-family="sans-serif" font-size="13" lengthAdjust="spacing" textLength="121.4497" x="101.2227" y="149.7622">Update lightStatus</text><polygon fill="#181818" points="637.6465,179.9609,647.6465,183.9609,637.6465,187.9609,641.6465,183.9609" style="stroke:#181818;stroke-width:1.0;"/><line style="stroke:#181818;stroke-width:1.0;" x1="94.2227" x2="643.6465" y1="183.9609" y2="183.9609"/><text fill="#000000" font-family="sans-serif" font-size="13" lengthAdjust="spacing" textLength="285.8604" x="101.2227" y="178.895">Toggle light ON or OFF based on lightStatus</text><polygon fill="#181818" points="865.8188,209.0938,875.8188,213.0938,865.8188,217.0938,869.8188,213.0938" style="stroke:#181818;stroke-width:1.0;"/><line style="stroke:#181818;stroke-width:1.0;" x1="649.6465" x2="871.8188" y1="213.0938" y2="213.0938"/><text fill="#000000" font-family="sans-serif" font-size="13" lengthAdjust="spacing" textLength="204.1724" x="656.6465" y="208.0278">Light status feedback (ON/OFF)</text><!--SRC=[ZP3D3e8m48JlFCKU8V7dpi6B1YygHi7xGbTi92rfb_Zwbi8132HUTsQ-cRP1mxAK3Ig6go5BggG3CPKijShGleDcv3W-Jee-arCjgnTdhL6fIbhbOnFzrEb1CCk6zMv0nd0Z522aPNIkJ9-bCTeinsPgOzXZNO-Li8Tl_EdEoArT3OMRtweec45sJRCJkhtihE1GVIDOp__ZfNaZa0b6evOp_lTYo7HLrKC4qWje0scIG86M1BYPOvQFTDdSaebxmZ0EdaIYmF8DONhPEaBq1G00]--></g></svg>