<svg xmlns="http://www.w3.org/2000/svg" xmlns:xlink="http://www.w3.org/1999/xlink" contentStyleType="text/css" height="317px" preserveAspectRatio="none" style="width:257px;height:317px;background:#FFFFFF;" version="1.1" viewBox="0 0 257 317" width="257px" zoomAndPan="magnify"><defs/><g><g id="TimerRunning"><rect fill="#F1F1F1" height="50" rx="12.5" ry="12.5" style="stroke:#181818;stroke-width:0.5;" width="122.8945" x="17.68" y="7"/><line style="stroke:#181818;stroke-width:0.5;" x1="17.68" x2="140.5745" y1="33.2969" y2="33.2969"/><text fill="#000000" font-family="sans-serif" font-size="14" lengthAdjust="spacing" textLength="102.8945" x="27.68" y="24.9951">Timer Running</text></g><g id="TimerCountdown"><rect fill="#F1F1F1" height="50" rx="12.5" ry="12.5" style="stroke:#181818;stroke-width:0.5;" width="144.25" x="7" y="134"/><line style="stroke:#181818;stroke-width:0.5;" x1="7" x2="151.25" y1="160.2969" y2="160.2969"/><text fill="#000000" font-family="sans-serif" font-size="14" lengthAdjust="spacing" textLength="124.25" x="17" y="151.9951">Timer Countdown</text></g><g id="LightOff"><rect fill="#F1F1F1" height="50" rx="12.5" ry="12.5" style="stroke:#181818;stroke-width:0.5;" width="80.2656" x="38.99" y="261"/><line style="stroke:#181818;stroke-width:0.5;" x1="38.99" x2="119.2556" y1="287.2969" y2="287.2969"/><text fill="#000000" font-family="sans-serif" font-size="14" lengthAdjust="spacing" textLength="60.2656" x="48.99" y="278.9951">Light Off</text></g><!--link TimerRunning to TimerCountdown--><g id="link_TimerRunning_TimerCountdown"><path d="M79.12,57.4 C79.12,79.42 79.12,105.66 79.12,127.66 " fill="none" id="TimerRunning-to-TimerCountdown" style="stroke:#181818;stroke-width:1.0;"/><polygon fill="#181818" points="79.12,133.66,83.12,124.66,79.12,128.66,75.12,124.66,79.12,133.66" style="stroke:#181818;stroke-width:1.0;"/><text fill="#000000" font-family="sans-serif" font-size="13" lengthAdjust="spacing" textLength="169.1143" x="80.12" y="100.0669">GVL.timerActive := FALSE</text></g><!--link TimerCountdown to LightOff--><g id="link_TimerCountdown_LightOff"><path d="M79.12,184.4 C79.12,206.42 79.12,232.66 79.12,254.66 " fill="none" id="TimerCountdown-to-LightOff" style="stroke:#181818;stroke-width:1.0;"/><polygon fill="#181818" points="79.12,260.66,83.12,251.66,79.12,255.66,75.12,251.66,79.12,260.66" style="stroke:#181818;stroke-width:1.0;"/><text fill="#000000" font-family="sans-serif" font-size="13" lengthAdjust="spacing" textLength="108.3164" x="80.12" y="227.0669">timer.Q = FALSE</text></g><!--SRC=[Aov9B4bLK0h9p4qjKWWgpSlBp4jNKaWiLW2BG0MuYf5LEUUNvfMav9Vd8TJ1XM0gVJBJCqeK_DFIm6h0F227YmlPL0LTNJiqxGfM2kvXFdeb8477v9BCibG5Ari5DqUVO5SkD9KWpJ1pWTh0MlG25Q2g0G00]--></g></svg>