<svg xmlns="http://www.w3.org/2000/svg" xmlns:xlink="http://www.w3.org/1999/xlink" contentStyleType="text/css" height="425px" preserveAspectRatio="none" style="width:468px;height:425px;background:#FFFFFF;" version="1.1" viewBox="0 0 468 425" width="468px" zoomAndPan="magnify"><defs/><g><line style="stroke:#181818;stroke-width:0.5;stroke-dasharray:5.0,5.0;" x1="23" x2="23" y1="81.2969" y2="344.2266"/><line style="stroke:#181818;stroke-width:0.5;stroke-dasharray:5.0,5.0;" x1="162.2192" x2="162.2192" y1="81.2969" y2="344.2266"/><line style="stroke:#181818;stroke-width:0.5;stroke-dasharray:5.0,5.0;" x1="346.1548" x2="346.1548" y1="81.2969" y2="344.2266"/><text fill="#000000" font-family="sans-serif" font-size="14" lengthAdjust="spacing" textLength="31.9102" x="5" y="77.9951">User</text><ellipse cx="23.9551" cy="13.5" fill="#E2E2F0" rx="8" ry="8" style="stroke:#181818;stroke-width:0.5;"/><path d="M23.9551,21.5 L23.9551,48.5 M10.9551,29.5 L36.9551,29.5 M23.9551,48.5 L10.9551,63.5 M23.9551,48.5 L36.9551,63.5 " fill="none" style="stroke:#181818;stroke-width:0.5;"/><text fill="#000000" font-family="sans-serif" font-size="14" lengthAdjust="spacing" textLength="31.9102" x="5" y="356.2217">User</text><ellipse cx="23.9551" cy="368.0234" fill="#E2E2F0" rx="8" ry="8" style="stroke:#181818;stroke-width:0.5;"/><path d="M23.9551,376.0234 L23.9551,403.0234 M10.9551,384.0234 L36.9551,384.0234 M23.9551,403.0234 L10.9551,418.0234 M23.9551,403.0234 L36.9551,418.0234 " fill="none" style="stroke:#181818;stroke-width:0.5;"/><rect fill="#E2E2F0" height="30.2969" rx="2.5" ry="2.5" style="stroke:#181818;stroke-width:0.5;" width="95.9424" x="115.2192" y="50"/><text fill="#000000" font-family="sans-serif" font-size="14" lengthAdjust="spacing" textLength="81.9424" x="122.2192" y="69.9951">lightControl</text><rect fill="#E2E2F0" height="30.2969" rx="2.5" ry="2.5" style="stroke:#181818;stroke-width:0.5;" width="95.9424" x="115.2192" y="343.2266"/><text fill="#000000" font-family="sans-serif" font-size="14" lengthAdjust="spacing" textLength="81.9424" x="122.2192" y="363.2217">lightControl</text><rect fill="#E2E2F0" height="30.2969" rx="2.5" ry="2.5" style="stroke:#181818;stroke-width:0.5;" width="102.2998" x="295.1548" y="50"/><text fill="#000000" font-family="sans-serif" font-size="14" lengthAdjust="spacing" textLength="88.2998" x="302.1548" y="69.9951">timerControl</text><rect fill="#E2E2F0" height="30.2969" rx="2.5" ry="2.5" style="stroke:#181818;stroke-width:0.5;" width="102.2998" x="295.1548" y="343.2266"/><text fill="#000000" font-family="sans-serif" font-size="14" lengthAdjust="spacing" textLength="88.2998" x="302.1548" y="363.2217">timerControl</text><polygon fill="#181818" points="151.1904,108.4297,161.1904,112.4297,151.1904,116.4297,155.1904,112.4297" style="stroke:#181818;stroke-width:1.0;"/><line style="stroke:#181818;stroke-width:1.0;" x1="23.9551" x2="157.1904" y1="112.4297" y2="112.4297"/><text fill="#000000" font-family="sans-serif" font-size="13" lengthAdjust="spacing" textLength="107.707" x="30.9551" y="107.3638">User near mirror</text><line style="stroke:#181818;stroke-width:1.0;" x1="163.1904" x2="205.1904" y1="141.5625" y2="141.5625"/><line style="stroke:#181818;stroke-width:1.0;" x1="205.1904" x2="205.1904" y1="141.5625" y2="154.5625"/><line style="stroke:#181818;stroke-width:1.0;" x1="164.1904" x2="205.1904" y1="154.5625" y2="154.5625"/><polygon fill="#181818" points="174.1904,150.5625,164.1904,154.5625,174.1904,158.5625,170.1904,154.5625" style="stroke:#181818;stroke-width:1.0;"/><text fill="#000000" font-family="sans-serif" font-size="13" lengthAdjust="spacing" textLength="163.7378" x="170.1904" y="136.4966">GVL.timerActive := TRUE</text><polygon fill="#181818" points="151.1904,179.6953,161.1904,183.6953,151.1904,187.6953,155.1904,183.6953" style="stroke:#181818;stroke-width:1.0;"/><line style="stroke:#181818;stroke-width:1.0;" x1="23.9551" x2="157.1904" y1="183.6953" y2="183.6953"/><text fill="#000000" font-family="sans-serif" font-size="13" lengthAdjust="spacing" textLength="115.2354" x="30.9551" y="178.6294">User moves away</text><line style="stroke:#181818;stroke-width:1.0;" x1="163.1904" x2="205.1904" y1="212.8281" y2="212.8281"/><line style="stroke:#181818;stroke-width:1.0;" x1="205.1904" x2="205.1904" y1="212.8281" y2="225.8281"/><line style="stroke:#181818;stroke-width:1.0;" x1="164.1904" x2="205.1904" y1="225.8281" y2="225.8281"/><polygon fill="#181818" points="174.1904,221.8281,164.1904,225.8281,174.1904,229.8281,170.1904,225.8281" style="stroke:#181818;stroke-width:1.0;"/><text fill="#000000" font-family="sans-serif" font-size="13" lengthAdjust="spacing" textLength="169.1143" x="170.1904" y="207.7622">GVL.timerActive := FALSE</text><polygon fill="#181818" points="334.3047,250.9609,344.3047,254.9609,334.3047,258.9609,338.3047,254.9609" style="stroke:#181818;stroke-width:1.0;"/><line style="stroke:#181818;stroke-width:1.0;" x1="163.1904" x2="340.3047" y1="254.9609" y2="254.9609"/><text fill="#000000" font-family="sans-serif" font-size="13" lengthAdjust="spacing" textLength="107.6436" x="170.1904" y="249.895">Start countdown</text><line style="stroke:#181818;stroke-width:1.0;" x1="346.3047" x2="388.3047" y1="284.0938" y2="284.0938"/><line style="stroke:#181818;stroke-width:1.0;" x1="388.3047" x2="388.3047" y1="284.0938" y2="297.0938"/><line style="stroke:#181818;stroke-width:1.0;" x1="347.3047" x2="388.3047" y1="297.0938" y2="297.0938"/><polygon fill="#181818" points="357.3047,293.0938,347.3047,297.0938,357.3047,301.0938,353.3047,297.0938" style="stroke:#181818;stroke-width:1.0;"/><text fill="#000000" font-family="sans-serif" font-size="13" lengthAdjust="spacing" textLength="108.3164" x="353.3047" y="279.0278">timer.Q = FALSE</text><polygon fill="#181818" points="174.1904,322.2266,164.1904,326.2266,174.1904,330.2266,170.1904,326.2266" style="stroke:#181818;stroke-width:1.0;"/><line style="stroke:#181818;stroke-width:1.0;" x1="168.1904" x2="345.3047" y1="326.2266" y2="326.2266"/><text fill="#000000" font-family="sans-serif" font-size="13" lengthAdjust="spacing" textLength="83.9478" x="180.1904" y="321.1606">Turn off light</text><!--SRC=[dOz13e8m44NtFSLSG0v0eWanw8QD0kwRMhG9xP1XW71xiOR4qiI5ovdt_ykCL8m4TQz9T9BOADD9nz2QnvEFw9Ym3G0Rgsa5ujs3tI68G-fruBGai8O8IGGypfzlHUB5cM8pQaZtK5th_AVUugXxa9ES_x2VigBCezxtRqklvELlK3WulkFaH83Zk1-J2wpsRNnpLJMG0soQp_u5]--></g></svg>