<svg xmlns="http://www.w3.org/2000/svg" xmlns:xlink="http://www.w3.org/1999/xlink" contentStyleType="text/css" height="441px" preserveAspectRatio="none" style="width:806px;height:441px;background:#FFFFFF;" version="1.1" viewBox="0 0 806 441" width="806px" zoomAndPan="magnify"><defs/><g><!--cluster Timer_Stopped--><g id="cluster_Timer_Stopped"><path d="M62.5,7 L739.5,7 A12.5,12.5 0 0 1 752,19.5 L752,28.2969 L50,28.2969 L50,19.5 A12.5,12.5 0 0 1 62.5,7 " fill="#F1F1F1" style="stroke:#F1F1F1;stroke-width:1.0;"/><rect fill="none" height="428.4" rx="12.5" ry="12.5" style="stroke:#181818;stroke-width:0.5;" width="702" x="50" y="7"/><line style="stroke:#181818;stroke-width:0.5;" x1="50" x2="752" y1="28.2969" y2="28.2969"/><text fill="#000000" font-family="sans-serif" font-size="14" lengthAdjust="spacing" textLength="105.6631" x="348.5" y="23.9951">Timer_Stopped</text></g><!--cluster Timer_Running--><g id="cluster_Timer_Running"><path d="M102.5,66 L426.5,66 A12.5,12.5 0 0 1 439,78.5 L439,87.2969 L90,87.2969 L90,78.5 A12.5,12.5 0 0 1 102.5,66 " fill="#F1F1F1" style="stroke:#F1F1F1;stroke-width:1.0;"/><rect fill="none" height="270.8" rx="12.5" ry="12.5" style="stroke:#181818;stroke-width:0.5;" width="349" x="90" y="66"/><line style="stroke:#181818;stroke-width:0.5;" x1="90" x2="439" y1="87.2969" y2="87.2969"/><text fill="#000000" font-family="sans-serif" font-size="14" lengthAdjust="spacing" textLength="105.4443" x="212" y="82.9951">Timer_Running</text></g><ellipse cx="539" cy="119" fill="#222222" rx="10" ry="10" style="stroke:#222222;stroke-width:1.0;"/><g id="Timer_Stopped.Checking_Distance"><rect fill="#F1F1F1" height="50" rx="12.5" ry="12.5" style="stroke:#181818;stroke-width:0.5;" width="152.9316" x="462.53" y="190"/><line style="stroke:#181818;stroke-width:0.5;" x1="462.53" x2="615.4616" y1="216.2969" y2="216.2969"/><text fill="#000000" font-family="sans-serif" font-size="14" lengthAdjust="spacing" textLength="132.9316" x="472.53" y="207.9951">Checking_Distance</text></g><ellipse cx="264" cy="119" fill="#222222" rx="10" ry="10" style="stroke:#222222;stroke-width:1.0;"/><g id="Timer_Stopped.Timer_Running.Timer_Countdown"><rect fill="#F1F1F1" height="50" rx="12.5" ry="12.5" style="stroke:#181818;stroke-width:0.5;" width="146.7998" x="190.6" y="190"/><line style="stroke:#181818;stroke-width:0.5;" x1="190.6" x2="337.3998" y1="216.2969" y2="216.2969"/><text fill="#000000" font-family="sans-serif" font-size="14" lengthAdjust="spacing" textLength="126.7998" x="200.6" y="207.9951">Timer_Countdown</text></g><ellipse cx="16" cy="327" fill="#222222" rx="10" ry="10" style="stroke:#222222;stroke-width:1.0;"/><!--link *start* to Timer_Stopped--><g id="link_*start*_Timer_Stopped"><path d="M23.73,333.79 C29.695,338.135 38.65,344.425 48.92,350.86 C49.2409,351.0611 44.4693,348.0918 44.7927,348.2931 " fill="none" id="*start*-to-Timer_Stopped" style="stroke:#181818;stroke-width:1.0;"/><polygon fill="#181818" points="49.8866,351.4637,44.3594,343.312,45.6417,348.8216,40.1321,350.1038,49.8866,351.4637" style="stroke:#181818;stroke-width:1.0;"/></g><!--link *start*Timer_Stopped to Checking_Distance--><g id="link_*start*Timer_Stopped_Checking_Distance"><path d="M539,129.36 C539,143.29 539,163.95 539,183.65 " fill="none" id="*start*Timer_Stopped-to-Checking_Distance" style="stroke:#181818;stroke-width:1.0;"/><polygon fill="#181818" points="539,189.65,543,180.65,539,184.65,535,180.65,539,189.65" style="stroke:#181818;stroke-width:1.0;"/></g><!--link Checking_Distance to Timer_Running--><g id="link_Checking_Distance_Timer_Running"><path d="M508.96,240.49 C498.7,248.26 486.4575,256.97 473.2813,265.1962 C466.6931,269.3094 459.8716,273.3016 452.9477,276.9948 C449.4857,278.8415 445.9982,280.6134 442.5014,282.2883 C441.6272,282.7071 440.7525,283.1197 439.8774,283.526 C439.6586,283.6276 444.8898,281.2191 444.6709,281.3198 " fill="none" id="Checking_Distance-to-Timer_Running" style="stroke:#181818;stroke-width:1.0;"/><polygon fill="#181818" points="439.221,283.8295,449.069,283.6983,443.7626,281.7381,445.7228,276.4317,439.221,283.8295" style="stroke:#181818;stroke-width:1.0;"/><text fill="#000000" font-family="sans-serif" font-size="13" lengthAdjust="spacing" textLength="255.2583" x="464.36" y="283.0669">User moves away (distance &gt; 1 meter)</text></g><!--link *start*Timer_Running to Timer_Countdown--><g id="link_*start*Timer_Running_Timer_Countdown"><path d="M264,129.36 C264,143.29 264,163.95 264,183.65 " fill="none" id="*start*Timer_Running-to-Timer_Countdown" style="stroke:#181818;stroke-width:1.0;"/><polygon fill="#181818" points="264,189.65,268,180.65,264,184.65,260,180.65,264,189.65" style="stroke:#181818;stroke-width:1.0;"/></g><!--link Timer_Countdown to Timer_Stopped--><g id="link_Timer_Countdown_Timer_Stopped"><path d="M303,240.5 C314.78,246.71 328.04,252.58 341,256 C361.86,261.49 714.03,254.48 729,270 C799.54,343.14 322.8398,418.1452 288.8098,423.3952 " fill="none" id="Timer_Countdown-to-Timer_Stopped" style="stroke:#181818;stroke-width:1.0;"/><polygon fill="#181818" points="282.88,424.31,292.3847,426.891,287.8215,423.5476,291.1649,418.9845,282.88,424.31" style="stroke:#181818;stroke-width:1.0;"/><text fill="#000000" font-family="sans-serif" font-size="13" lengthAdjust="spacing" textLength="89.3623" x="707.35" y="331.5669">Timer expires</text></g><!--link Timer_Countdown to Timer_Running--><g id="link_Timer_Countdown_Timer_Running"><path d="M190.48,229.81 C149.84,240.84 111.53,259.13 133,287 C152.3,312.05 257.6611,323.6201 273.2211,325.2101 " fill="none" id="Timer_Countdown-to-Timer_Running" style="stroke:#181818;stroke-width:1.0;"/><polygon fill="#181818" points="279.19,325.82,270.6432,320.9258,274.2159,325.3117,269.83,328.8844,279.19,325.82" style="stroke:#181818;stroke-width:1.0;"/><text fill="#000000" font-family="sans-serif" font-size="13" lengthAdjust="spacing" textLength="296.8608" x="134" y="283.0669">User comes back within 1 meter (timer reset)</text></g><!--link Timer_Running to Timer_Stopped--><g id="link_Timer_Running_Timer_Stopped"><path d="M281,336.9973 C281,337.0979 281,337.1992 281,337.3012 C281,337.5052 281,337.712 281,337.9215 C281,338.7594 281,339.6404 281,340.5608 C281,342.4015 281,344.3994 281,346.5231 C281,355.0181 281,365.5275 281,376.0525 C281,397.1025 281,412.215 281,417.4 " fill="none" id="Timer_Running-to-Timer_Stopped" style="stroke:#181818;stroke-width:1.0;"/><polygon fill="#181818" points="281,423.4,285,414.4,281,418.4,277,414.4,281,423.4" style="stroke:#181818;stroke-width:1.0;"/><text fill="#000000" font-family="sans-serif" font-size="13" lengthAdjust="spacing" textLength="92.5425" x="282" y="389.8669">Timer elapsed</text></g><!--SRC=[XO_D2i8m48JlUOezLg47hnvwgK_Wpwb8YSbYGyqFoTOguhiReWNRWkvjPtQ6Rwlb4VAyWBtIwEiTMUTGCXQ84uv5U328Ktq2POEYLUPSRrGyDWAJErE_ohUTCT62DHm2Uj3sYW5up- -GoU6wW1Le9FGBzXnJ3EannTihRMT8sjuaRwBDtui4QGUyEUKn_4bDk8NLaVl4HGkzeaQP0HaoIgsn4IdnZ_C_E2xS1PGl]--></g></svg>