<svg xmlns="http://www.w3.org/2000/svg" xmlns:xlink="http://www.w3.org/1999/xlink" contentStyleType="text/css" height="499px" preserveAspectRatio="none" style="width:558px;height:499px;background:#FFFFFF;" version="1.1" viewBox="0 0 558 499" width="558px" zoomAndPan="magnify"><defs/><g><line style="stroke:#181818;stroke-width:0.5;stroke-dasharray:5.0,5.0;" x1="23" x2="23" y1="81.2969" y2="418.625"/><line style="stroke:#181818;stroke-width:0.5;stroke-dasharray:5.0,5.0;" x1="206.1201" x2="206.1201" y1="81.2969" y2="418.625"/><line style="stroke:#181818;stroke-width:0.5;stroke-dasharray:5.0,5.0;" x1="346.6099" x2="346.6099" y1="81.2969" y2="418.625"/><line style="stroke:#181818;stroke-width:0.5;stroke-dasharray:5.0,5.0;" x1="531.416" x2="531.416" y1="81.2969" y2="418.625"/><text fill="#000000" font-family="sans-serif" font-size="14" lengthAdjust="spacing" textLength="31.9102" x="5" y="77.9951">User</text><ellipse cx="23.9551" cy="13.5" fill="#E2E2F0" rx="8" ry="8" style="stroke:#181818;stroke-width:0.5;"/><path d="M23.9551,21.5 L23.9551,48.5 M10.9551,29.5 L36.9551,29.5 M23.9551,48.5 L10.9551,63.5 M23.9551,48.5 L36.9551,63.5 " fill="none" style="stroke:#181818;stroke-width:0.5;"/><text fill="#000000" font-family="sans-serif" font-size="14" lengthAdjust="spacing" textLength="31.9102" x="5" y="430.6201">User</text><ellipse cx="23.9551" cy="442.4219" fill="#E2E2F0" rx="8" ry="8" style="stroke:#181818;stroke-width:0.5;"/><path d="M23.9551,450.4219 L23.9551,477.4219 M10.9551,458.4219 L36.9551,458.4219 M23.9551,477.4219 L10.9551,492.4219 M23.9551,477.4219 L36.9551,492.4219 " fill="none" style="stroke:#181818;stroke-width:0.5;"/><rect fill="#E2E2F0" height="30.2969" rx="2.5" ry="2.5" style="stroke:#181818;stroke-width:0.5;" width="99.8525" x="157.1201" y="50"/><text fill="#000000" font-family="sans-serif" font-size="14" lengthAdjust="spacing" textLength="85.8525" x="164.1201" y="69.9951">LightControl</text><rect fill="#E2E2F0" height="30.2969" rx="2.5" ry="2.5" style="stroke:#181818;stroke-width:0.5;" width="99.8525" x="157.1201" y="417.625"/><text fill="#000000" font-family="sans-serif" font-size="14" lengthAdjust="spacing" textLength="85.8525" x="164.1201" y="437.6201">LightControl</text><rect fill="#E2E2F0" height="30.2969" rx="2.5" ry="2.5" style="stroke:#181818;stroke-width:0.5;" width="105.3623" x="294.6099" y="50"/><text fill="#000000" font-family="sans-serif" font-size="14" lengthAdjust="spacing" textLength="91.3623" x="301.6099" y="69.9951">TimerControl</text><rect fill="#E2E2F0" height="30.2969" rx="2.5" ry="2.5" style="stroke:#181818;stroke-width:0.5;" width="105.3623" x="294.6099" y="417.625"/><text fill="#000000" font-family="sans-serif" font-size="14" lengthAdjust="spacing" textLength="91.3623" x="301.6099" y="437.6201">TimerControl</text><rect fill="#E2E2F0" height="30.2969" rx="2.5" ry="2.5" style="stroke:#181818;stroke-width:0.5;" width="42.2256" x="510.416" y="50"/><text fill="#000000" font-family="sans-serif" font-size="14" lengthAdjust="spacing" textLength="28.2256" x="517.416" y="69.9951">GVL</text><rect fill="#E2E2F0" height="30.2969" rx="2.5" ry="2.5" style="stroke:#181818;stroke-width:0.5;" width="42.2256" x="510.416" y="417.625"/><text fill="#000000" font-family="sans-serif" font-size="14" lengthAdjust="spacing" textLength="28.2256" x="517.416" y="437.6201">GVL</text><polygon fill="#181818" points="195.0464,108.4297,205.0464,112.4297,195.0464,116.4297,199.0464,112.4297" style="stroke:#181818;stroke-width:1.0;"/><line style="stroke:#181818;stroke-width:1.0;" x1="23.9551" x2="201.0464" y1="112.4297" y2="112.4297"/><text fill="#000000" font-family="sans-serif" font-size="13" lengthAdjust="spacing" textLength="142.1812" x="30.9551" y="107.3638">Moves towards mirror</text><polygon fill="#181818" points="519.5288,137.5625,529.5288,141.5625,519.5288,145.5625,523.5288,141.5625" style="stroke:#181818;stroke-width:1.0;"/><line style="stroke:#181818;stroke-width:1.0;" x1="207.0464" x2="525.5288" y1="141.5625" y2="141.5625"/><text fill="#000000" font-family="sans-serif" font-size="13" lengthAdjust="spacing" textLength="149.5762" x="214.0464" y="136.4966">Set lightStatus = TRUE</text><polygon fill="#181818" points="358.291,166.6953,348.291,170.6953,358.291,174.6953,354.291,170.6953" style="stroke:#181818;stroke-width:1.0;"/><line style="stroke:#181818;stroke-width:1.0;" x1="352.291" x2="530.5288" y1="170.6953" y2="170.6953"/><text fill="#000000" font-family="sans-serif" font-size="13" lengthAdjust="spacing" textLength="107.6182" x="364.291" y="165.6294">Read lightStatus</text><line style="stroke:#181818;stroke-width:1.0;" x1="347.291" x2="389.291" y1="199.8281" y2="199.8281"/><line style="stroke:#181818;stroke-width:1.0;" x1="389.291" x2="389.291" y1="199.8281" y2="212.8281"/><line style="stroke:#181818;stroke-width:1.0;" x1="348.291" x2="389.291" y1="212.8281" y2="212.8281"/><polygon fill="#181818" points="358.291,208.8281,348.291,212.8281,358.291,216.8281,354.291,212.8281" style="stroke:#181818;stroke-width:1.0;"/><text fill="#000000" font-family="sans-serif" font-size="13" lengthAdjust="spacing" textLength="121.145" x="354.291" y="194.7622">Timer is not active</text><polygon fill="#181818" points="195.0464,237.9609,205.0464,241.9609,195.0464,245.9609,199.0464,241.9609" style="stroke:#181818;stroke-width:1.0;"/><line style="stroke:#181818;stroke-width:1.0;" x1="23.9551" x2="201.0464" y1="241.9609" y2="241.9609"/><text fill="#000000" font-family="sans-serif" font-size="13" lengthAdjust="spacing" textLength="159.0913" x="30.9551" y="236.895">Moves away from mirror</text><polygon fill="#181818" points="519.5288,267.0938,529.5288,271.0938,519.5288,275.0938,523.5288,271.0938" style="stroke:#181818;stroke-width:1.0;"/><line style="stroke:#181818;stroke-width:1.0;" x1="207.0464" x2="525.5288" y1="271.0938" y2="271.0938"/><text fill="#000000" font-family="sans-serif" font-size="13" lengthAdjust="spacing" textLength="149.5762" x="214.0464" y="266.0278">Set lightStatus = TRUE</text><polygon fill="#181818" points="358.291,296.2266,348.291,300.2266,358.291,304.2266,354.291,300.2266" style="stroke:#181818;stroke-width:1.0;"/><line style="stroke:#181818;stroke-width:1.0;" x1="352.291" x2="530.5288" y1="300.2266" y2="300.2266"/><text fill="#000000" font-family="sans-serif" font-size="13" lengthAdjust="spacing" textLength="98.0522" x="364.291" y="295.1606">Start 15s timer</text><line style="stroke:#181818;stroke-width:1.0;" x1="347.291" x2="389.291" y1="329.3594" y2="329.3594"/><line style="stroke:#181818;stroke-width:1.0;" x1="389.291" x2="389.291" y1="329.3594" y2="342.3594"/><line style="stroke:#181818;stroke-width:1.0;" x1="348.291" x2="389.291" y1="342.3594" y2="342.3594"/><polygon fill="#181818" points="358.291,338.3594,348.291,342.3594,358.291,346.3594,354.291,342.3594" style="stroke:#181818;stroke-width:1.0;"/><text fill="#000000" font-family="sans-serif" font-size="13" lengthAdjust="spacing" textLength="170.2378" x="354.291" y="324.2935">Timer runs for 15 seconds</text><polygon fill="#181818" points="218.0464,367.4922,208.0464,371.4922,218.0464,375.4922,214.0464,371.4922" style="stroke:#181818;stroke-width:1.0;"/><line style="stroke:#181818;stroke-width:1.0;" x1="212.0464" x2="346.291" y1="371.4922" y2="371.4922"/><text fill="#000000" font-family="sans-serif" font-size="13" lengthAdjust="spacing" textLength="116.2446" x="224.0464" y="366.4263">Light off after 15s</text><polygon fill="#181818" points="519.5288,396.625,529.5288,400.625,519.5288,404.625,523.5288,400.625" style="stroke:#181818;stroke-width:1.0;"/><line style="stroke:#181818;stroke-width:1.0;" x1="207.0464" x2="525.5288" y1="400.625" y2="400.625"/><text fill="#000000" font-family="sans-serif" font-size="13" lengthAdjust="spacing" textLength="154.9526" x="214.0464" y="395.5591">Set lightStatus = FALSE</text><!--SRC=[hP4nZi8m44Lxd-9VO0iAcaYBX11iasq8q8yI6omH3vePGDmUcoeH255GZj__zjEOMcF1Lhsu4ud5Dfue6UguFzY2amaVHs0JUo-lmD-kTgxSWv_Pg5xXdozUONmbwHHz565nmqYfv7w5nXkE1JH6TbRyOhFUBbrc9J9ykyBQKpSCko5-ZZycH4LY0xKMB_wzBrtfXY3SVyquHyGmcUPTbFEFXEMS525_qMGAzIsdJjrJSQp_cC0XW8BvqjHFtLVpkbdU0G00]--></g></svg>