<svg xmlns="http://www.w3.org/2000/svg" xmlns:xlink="http://www.w3.org/1999/xlink" contentStyleType="text/css" height="525px" preserveAspectRatio="none" style="width:871px;height:525px;background:#FFFFFF;" version="1.1" viewBox="0 0 871 525" width="871px" zoomAndPan="magnify"><defs/><g><ellipse cx="398.96" cy="16" fill="#222222" rx="10" ry="10" style="stroke:#222222;stroke-width:1.0;"/><g id="Idle"><rect fill="#F1F1F1" height="50.2656" rx="12.5" ry="12.5" style="stroke:#181818;stroke-width:0.5;" width="221.7031" x="288.11" y="87"/><line style="stroke:#181818;stroke-width:0.5;" x1="288.11" x2="509.8131" y1="113.2969" y2="113.2969"/><text fill="#000000" font-family="sans-serif" font-size="14" lengthAdjust="spacing" textLength="25.5186" x="386.2023" y="104.9951">Idle</text><text fill="#000000" font-family="sans-serif" font-size="12" lengthAdjust="spacing" textLength="201.7031" x="293.11" y="129.4355">Light is off, no presence detected</text></g><g id="LightOn"><rect fill="#F1F1F1" height="50.2656" rx="12.5" ry="12.5" style="stroke:#181818;stroke-width:0.5;" width="103.625" x="224.15" y="214.26"/><line style="stroke:#181818;stroke-width:0.5;" x1="224.15" x2="327.775" y1="240.5569" y2="240.5569"/><text fill="#000000" font-family="sans-serif" font-size="14" lengthAdjust="spacing" textLength="54.8311" x="248.547" y="232.2551">LightOn</text><text fill="#000000" font-family="sans-serif" font-size="12" lengthAdjust="spacing" textLength="83.625" x="229.15" y="256.6955">Light turns on</text></g><g id="TimerActive"><rect fill="#F1F1F1" height="50.2656" rx="12.5" ry="12.5" style="stroke:#181818;stroke-width:0.5;" width="235.7012" x="404.11" y="341.53"/><line style="stroke:#181818;stroke-width:0.5;" x1="404.11" x2="639.8112" y1="367.8269" y2="367.8269"/><text fill="#000000" font-family="sans-serif" font-size="14" lengthAdjust="spacing" textLength="84" x="479.9606" y="359.5251">TimerActive</text><text fill="#000000" font-family="sans-serif" font-size="12" lengthAdjust="spacing" textLength="215.7012" x="409.11" y="383.9655">Light stays on, counting 15 minutes</text></g><g id="LightOff"><rect fill="#F1F1F1" height="50.2656" rx="12.5" ry="12.5" style="stroke:#181818;stroke-width:0.5;" width="104.4688" x="608.73" y="468.79"/><line style="stroke:#181818;stroke-width:0.5;" x1="608.73" x2="713.1988" y1="495.0869" y2="495.0869"/><text fill="#000000" font-family="sans-serif" font-size="14" lengthAdjust="spacing" textLength="55.8154" x="633.0567" y="486.7851">LightOff</text><text fill="#000000" font-family="sans-serif" font-size="12" lengthAdjust="spacing" textLength="84.4688" x="613.73" y="511.2255">Light turns off</text></g><!--link *start* to Idle--><g id="link_*start*_Idle"><path d="M398.96,26.37 C398.96,40.32 398.96,61.02 398.96,80.74 " fill="none" id="*start*-to-Idle" style="stroke:#181818;stroke-width:1.0;"/><polygon fill="#181818" points="398.96,86.74,402.96,77.74,398.96,81.74,394.96,77.74,398.96,86.74" style="stroke:#181818;stroke-width:1.0;"/></g><!--link Idle to LightOn--><g id="link_Idle_LightOn"><path d="M287.91,113.02 C186.21,115.57 46.29,126.67 10.96,167.26 C6,172.96 6.19,178.41 10.96,184.26 C37.32,216.55 148.5472,229.6365 217.9472,234.8965 " fill="none" id="Idle-to-LightOn" style="stroke:#181818;stroke-width:1.0;"/><polygon fill="#181818" points="223.93,235.35,215.258,230.6813,218.9443,234.9721,214.6534,238.6584,223.93,235.35" style="stroke:#181818;stroke-width:1.0;"/><text fill="#000000" font-family="sans-serif" font-size="13" lengthAdjust="spacing" textLength="220.5112" x="11.96" y="180.3269">Presence detected within 1 meter</text></g><!--link LightOn to Idle--><g id="link_LightOn_Idle"><path d="M268.22,214.09 C265.07,199.37 263.99,180.89 272.96,167.26 C281.22,154.74 287.8164,148.052 300.9464,140.632 " fill="none" id="LightOn-to-Idle" style="stroke:#181818;stroke-width:1.0;"/><polygon fill="#181818" points="306.17,137.68,296.3666,138.6255,301.817,140.14,300.3026,145.5903,306.17,137.68" style="stroke:#181818;stroke-width:1.0;"/><text fill="#000000" font-family="sans-serif" font-size="13" lengthAdjust="spacing" textLength="221.5078" x="273.96" y="180.3269">Presence lost (move out of range)</text></g><!--link LightOn to TimerActive--><g id="link_LightOn_TimerActive"><path d="M297.08,264.75 C311.49,280.05 331.74,299.15 352.96,311.53 C373.72,323.63 391.8296,331.4875 414.8896,339.1975 " fill="none" id="LightOn-to-TimerActive" style="stroke:#181818;stroke-width:1.0;"/><polygon fill="#181818" points="420.58,341.1,413.3128,334.4526,415.838,339.5145,410.7761,342.0398,420.58,341.1" style="stroke:#181818;stroke-width:1.0;"/><text fill="#000000" font-family="sans-serif" font-size="13" lengthAdjust="spacing" textLength="141.8193" x="353.96" y="307.5969">Start 15-minute timer</text></g><!--link TimerActive to LightOff--><g id="link_TimerActive_LightOff"><path d="M549.09,392.11 C573.59,414.18 604.9727,442.4735 629.4427,464.5235 " fill="none" id="TimerActive-to-LightOff" style="stroke:#181818;stroke-width:1.0;"/><polygon fill="#181818" points="633.9,468.54,629.8917,459.5437,630.1856,465.1929,624.5364,465.4868,633.9,468.54" style="stroke:#181818;stroke-width:1.0;"/><text fill="#000000" font-family="sans-serif" font-size="13" lengthAdjust="spacing" textLength="89.3623" x="600.79" y="434.8569">Timer expires</text></g><!--link LightOff to Idle--><g id="link_LightOff_Idle"><path d="M684.01,468.6 C729.94,417.11 823.43,295.2 761.96,214.26 C731.35,173.95 611.0141,146.4315 515.9441,130.1715 " fill="none" id="LightOff-to-Idle" style="stroke:#181818;stroke-width:1.0;"/><polygon fill="#181818" points="510.03,129.16,518.2268,134.62,514.9584,130.0029,519.5755,126.7345,510.03,129.16" style="stroke:#181818;stroke-width:1.0;"/><text fill="#000000" font-family="sans-serif" font-size="13" lengthAdjust="spacing" textLength="81.688" x="781.95" y="307.5969">Reset to idle</text></g><!--link TimerActive to Idle--><g id="link_TimerActive_Idle"><path d="M526.03,341.25 C531.33,301.2 536.07,220.66 499.96,167.26 C491.66,154.99 484.8057,148.3221 471.9257,140.7121 " fill="none" id="TimerActive-to-Idle" style="stroke:#181818;stroke-width:1.0;"/><polygon fill="#181818" points="466.76,137.66,472.4738,145.682,471.0648,140.2034,476.5433,138.7943,466.76,137.66" style="stroke:#181818;stroke-width:1.0;"/><text fill="#000000" font-family="sans-serif" font-size="13" lengthAdjust="spacing" textLength="223.812" x="529.82" y="243.9669">Presence lost before timer expires</text></g><!--SRC=[RP0nJyD038Nt-nLlfAWPEdJfWCI8X0G2DjGXJNoffSPNtJb0_tsT8nT5XSM3_TxpPt_Uxr5L3tXgJ-JSM7Tuvkweu8JW_HeIS8wKI1f2IqgDKfk5sPUrBu8TNcz5-6Ozic23tZhHkKbR5kWGnNP8wUUy3-ufFZRANsIPxrf7nMPRzIo34dISEhSGbR2azMKCMwC9WoXBPpRysjBIiA3stbRa4UZdpCPV6Bs_WVH-diplClERdMoQ0CxlMnuoAUQld49ItFN12CAWbeXOIqUhFsp_6W_aGvpkBx1N]--></g></svg>