<svg xmlns="http://www.w3.org/2000/svg" xmlns:xlink="http://www.w3.org/1999/xlink" contentStyleType="text/css" height="419px" preserveAspectRatio="none" style="width:814px;height:419px;background:#FFFFFF;" version="1.1" viewBox="0 0 814 419" width="814px" zoomAndPan="magnify"><defs/><g><!--cluster Light_Off--><g id="cluster_Light_Off"><path d="M112.65,7 L788.65,7 A12.5,12.5 0 0 1 801.15,19.5 L801.15,28.2969 L100.15,28.2969 L100.15,19.5 A12.5,12.5 0 0 1 112.65,7 " fill="#F1F1F1" style="stroke:#F1F1F1;stroke-width:1.0;"/><rect fill="none" height="406.4" rx="12.5" ry="12.5" style="stroke:#181818;stroke-width:0.5;" width="701" x="100.15" y="7"/><line style="stroke:#181818;stroke-width:0.5;" x1="100.15" x2="801.15" y1="28.2969" y2="28.2969"/><text fill="#000000" font-family="sans-serif" font-size="14" lengthAdjust="spacing" textLength="62.8154" x="419.65" y="23.9951">Light_Off</text></g><!--cluster Light_On--><g id="cluster_Light_On"><path d="M152.65,125 L360.65,125 A12.5,12.5 0 0 1 373.15,137.5 L373.15,146.2969 L140.15,146.2969 L140.15,137.5 A12.5,12.5 0 0 1 152.65,125 " fill="#F1F1F1" style="stroke:#F1F1F1;stroke-width:1.0;"/><rect fill="none" height="189.8" rx="12.5" ry="12.5" style="stroke:#181818;stroke-width:0.5;" width="233" x="140.15" y="125"/><line style="stroke:#181818;stroke-width:0.5;" x1="140.15" x2="373.15" y1="146.2969" y2="146.2969"/><text fill="#000000" font-family="sans-serif" font-size="14" lengthAdjust="spacing" textLength="61.8311" x="226.15" y="141.9951">Light_On</text></g><ellipse cx="689.15" cy="60" fill="#222222" rx="10" ry="10" style="stroke:#222222;stroke-width:1.0;"/><g id="Light_Off.Checking_Distance"><rect fill="#F1F1F1" height="50" rx="12.5" ry="12.5" style="stroke:#181818;stroke-width:0.5;" width="152.9316" x="612.68" y="168"/><line style="stroke:#181818;stroke-width:0.5;" x1="612.68" x2="765.6116" y1="194.2969" y2="194.2969"/><text fill="#000000" font-family="sans-serif" font-size="14" lengthAdjust="spacing" textLength="132.9316" x="622.68" y="185.9951">Checking_Distance</text></g><ellipse cx="174.15" cy="193" fill="#222222" rx="10" ry="10" style="stroke:#222222;stroke-width:1.0;"/><g id="Light_Off.Light_On.Timer_Start"><rect fill="#F1F1F1" height="50" rx="12.5" ry="12.5" style="stroke:#181818;stroke-width:0.5;" width="101.6484" x="219.32" y="168"/><line style="stroke:#181818;stroke-width:0.5;" x1="219.32" x2="320.9684" y1="194.2969" y2="194.2969"/><text fill="#000000" font-family="sans-serif" font-size="14" lengthAdjust="spacing" textLength="81.6484" x="229.32" y="185.9951">Timer_Start</text></g><ellipse cx="66.15" cy="305" fill="#222222" rx="10" ry="10" style="stroke:#222222;stroke-width:1.0;"/><!--link *start* to Light_Off--><g id="link_*start*_Light_Off"><path d="M71.64,313.58 C75.5075,318.9175 81.1056,326.6431 87.4106,335.3442 C90.5631,339.6948 93.8923,344.2892 97.2703,348.9509 C98.1148,350.1163 98.9623,351.2859 99.8109,352.457 C99.917,352.6034 96.5025,347.8913 96.6086,348.0377 " fill="none" id="*start*-to-Light_Off" style="stroke:#181818;stroke-width:1.0;"/><polygon fill="#181818" points="100.1292,352.8962,98.0873,343.2614,97.1954,348.8474,91.6093,347.9555,100.1292,352.8962" style="stroke:#181818;stroke-width:1.0;"/></g><!--link *start*Light_Off to Checking_Distance--><g id="link_*start*Light_Off_Checking_Distance"><path d="M689.15,70.42 C689.15,90.54 689.15,132.27 689.15,161.58 " fill="none" id="*start*Light_Off-to-Checking_Distance" style="stroke:#181818;stroke-width:1.0;"/><polygon fill="#181818" points="689.15,167.58,693.15,158.58,689.15,162.58,685.15,158.58,689.15,167.58" style="stroke:#181818;stroke-width:1.0;"/></g><!--link Checking_Distance to Light_On--><g id="link_Checking_Distance_Light_On"><path d="M612.18,203.71 C553.74,212.22 471.82,226.62 402.15,248 C395.2638,250.1125 388.2516,252.4817 381.2339,255.0204 C379.4795,255.6551 377.7247,256.3004 375.9715,256.9549 C375.0949,257.2822 379.8296,255.4862 378.954,255.8179 " fill="none" id="Checking_Distance-to-Light_On" style="stroke:#181818;stroke-width:1.0;"/><polygon fill="#181818" points="373.3431,257.9434,383.1764,258.4957,378.0188,256.1721,380.3424,251.0145,373.3431,257.9434" style="stroke:#181818;stroke-width:1.0;"/><text fill="#000000" font-family="sans-serif" font-size="13" lengthAdjust="spacing" textLength="143.3491" x="403.15" y="261.0669">User is within 1 meter</text></g><!--link Checking_Distance to Light_On--><g id="link_Checking_Distance_Light_On"><path d="M650.51,218.35 C623.65,234.14 586.46,253.79 551.15,265 C495.635,282.615 431.3725,292.2825 378.625,297.5838 C376.9766,297.7494 381.3116,297.333 379.6864,297.4902 " fill="none" id="Checking_Distance-to-Light_On-1" style="stroke:#181818;stroke-width:1.0;"/><polygon fill="#181818" points="373.7143,298.0681,383.0577,301.1828,378.691,297.5866,382.2872,293.2199,373.7143,298.0681" style="stroke:#181818;stroke-width:1.0;"/><text fill="#000000" font-family="sans-serif" font-size="13" lengthAdjust="spacing" textLength="185.561" x="591.74" y="261.0669">User remains within 1 meter</text></g><!--link *start*Light_On to Checking_Distance--><g id="link_*start*Light_On_Checking_Distance"><path d="M174.58,182.61 C176.19,159.67 183.8,105.5 219.65,89.5 C260.23,71.39 275.61,83.45 319.65,89.5 C426.89,104.24 541.205,139.9931 614.535,165.5831 " fill="none" id="*start*Light_On-to-Checking_Distance" style="stroke:#181818;stroke-width:1.0;"/><polygon fill="#181818" points="620.2,167.56,613.0205,160.818,615.4792,165.9126,610.3846,168.3713,620.2,167.56" style="stroke:#181818;stroke-width:1.0;"/></g><!--link Checking_Distance to Timer_Start--><g id="link_Checking_Distance_Timer_Start"><path d="M612.28,193 C527.57,193 399.73,193 327.1,193 " fill="none" id="Checking_Distance-to-Timer_Start" style="stroke:#181818;stroke-width:1.0;"/><polygon fill="#181818" points="321.1,193,330.1,197,326.1,193,330.1,189,321.1,193" style="stroke:#181818;stroke-width:1.0;"/><text fill="#000000" font-family="sans-serif" font-size="13" lengthAdjust="spacing" textLength="255.2583" x="339.32" y="186.0669">User moves away (distance &gt; 1 meter)</text></g><!--link Light_On to Light_Off--><g id="link_Light_On_Light_Off"><path d="M260.3367,315.0342 C259.1453,315.8742 257.8852,316.7628 256.5627,317.6953 C253.9176,319.5604 251.0228,321.6016 247.9283,323.7836 C235.5503,332.5116 219.9781,343.4919 204.4213,354.4612 C173.3075,376.4 147.1597,394.8391 141.8447,398.5841 " fill="none" id="Light_On-to-Light_Off" style="stroke:#181818;stroke-width:1.0;"/><polygon fill="#181818" points="136.94,402.04,146.6011,400.1259,141.0273,399.1601,141.9932,393.5863,136.94,402.04" style="stroke:#181818;stroke-width:1.0;"/><text fill="#000000" font-family="sans-serif" font-size="13" lengthAdjust="spacing" textLength="92.5425" x="201.54" y="367.8669">Timer elapsed</text></g><!--link Timer_Start to Light_On--><g id="link_Timer_Start_Light_On"><path d="M235.59,218.43 C225.28,224.56 213.65,230.41 202.15,234 C181.83,240.34 25.63,232.41 11.15,248 C6,253.53 6.21,259.28 11.15,265 C47.48,307.14 243.2511,304.5747 265.2111,304.1547 " fill="none" id="Timer_Start-to-Light_On" style="stroke:#181818;stroke-width:1.0;"/><polygon fill="#181818" points="271.21,304.04,262.1352,300.2128,266.2109,304.1356,262.2881,308.2114,271.21,304.04" style="stroke:#181818;stroke-width:1.0;"/><text fill="#000000" font-family="sans-serif" font-size="13" lengthAdjust="spacing" textLength="180.0005" x="12.15" y="261.0669">User returns within 1 meter</text></g><!--SRC=[hP2n2i9044Jx-uefLKXXQv56Iy52hO8SHx995hrJxbQ3YFzk34QZqSujTuVtXar66qHHZ3aNfUX5dYiLn0Yz5hWer9CyWjEIqYsxGi-u3hgKccjlsuKwJB0EvC415Kl93cDO4lBg-g5pVxHviePTJ_aRi69BNY_5U6aPTd-Y05EPCmPPcurRrl3U_wbzUsCDQ72WdJa4obGN_hsj77slxGq0]--></g></svg>