<svg xmlns="http://www.w3.org/2000/svg" xmlns:xlink="http://www.w3.org/1999/xlink" contentStyleType="text/css" height="525px" preserveAspectRatio="none" style="width:1037px;height:525px;background:#FFFFFF;" version="1.1" viewBox="0 0 1037 525" width="1037px" zoomAndPan="magnify"><defs/><g><ellipse cx="419.25" cy="16" fill="#222222" rx="10" ry="10" style="stroke:#222222;stroke-width:1.0;"/><g id="UserFar"><rect fill="#F1F1F1" height="50.2656" rx="12.5" ry="12.5" style="stroke:#181818;stroke-width:0.5;" width="250.3496" x="294.08" y="87"/><line style="stroke:#181818;stroke-width:0.5;" x1="294.08" x2="544.4296" y1="113.2969" y2="113.2969"/><text fill="#000000" font-family="sans-serif" font-size="14" lengthAdjust="spacing" textLength="54.2979" x="392.1059" y="104.9951">UserFar</text><text fill="#000000" font-family="sans-serif" font-size="12" lengthAdjust="spacing" textLength="230.3496" x="299.08" y="129.4355">User is far from the mirror (light is off)</text></g><g id="UserNear"><rect fill="#F1F1F1" height="50.2656" rx="12.5" ry="12.5" style="stroke:#181818;stroke-width:0.5;" width="244.2324" x="157.14" y="214.26"/><line style="stroke:#181818;stroke-width:0.5;" x1="157.14" x2="401.3724" y1="240.5569" y2="240.5569"/><text fill="#000000" font-family="sans-serif" font-size="14" lengthAdjust="spacing" textLength="65.3311" x="246.5907" y="232.2551">UserNear</text><text fill="#000000" font-family="sans-serif" font-size="12" lengthAdjust="spacing" textLength="224.2324" x="162.14" y="256.6955">User is near the mirror, light turns on</text></g><g id="TimerRunning"><rect fill="#F1F1F1" height="50.2656" rx="12.5" ry="12.5" style="stroke:#181818;stroke-width:0.5;" width="209.9785" x="454.27" y="341.53"/><line style="stroke:#181818;stroke-width:0.5;" x1="454.27" x2="664.2485" y1="367.8269" y2="367.8269"/><text fill="#000000" font-family="sans-serif" font-size="14" lengthAdjust="spacing" textLength="98.4443" x="510.0371" y="359.5251">TimerRunning</text><text fill="#000000" font-family="sans-serif" font-size="12" lengthAdjust="spacing" textLength="189.9785" x="459.27" y="383.9655">Timer is running for 15 minutes</text></g><g id="LightOff"><rect fill="#F1F1F1" height="50.2656" rx="12.5" ry="12.5" style="stroke:#181818;stroke-width:0.5;" width="104.4688" x="662.02" y="468.79"/><line style="stroke:#181818;stroke-width:0.5;" x1="662.02" x2="766.4888" y1="495.0869" y2="495.0869"/><text fill="#000000" font-family="sans-serif" font-size="14" lengthAdjust="spacing" textLength="55.8154" x="686.3467" y="486.7851">LightOff</text><text fill="#000000" font-family="sans-serif" font-size="12" lengthAdjust="spacing" textLength="84.4688" x="667.02" y="511.2255">Light turns off</text></g><!--link *start* to UserFar--><g id="link_*start*_UserFar"><path d="M419.25,26.37 C419.25,40.32 419.25,61.02 419.25,80.74 " fill="none" id="*start*-to-UserFar" style="stroke:#181818;stroke-width:1.0;"/><polygon fill="#181818" points="419.25,86.74,423.25,77.74,419.25,81.74,415.25,77.74,419.25,86.74" style="stroke:#181818;stroke-width:1.0;"/></g><!--link UserFar to UserNear--><g id="link_UserFar_UserNear"><path d="M293.66,114.27 C197.88,118.12 77.14,130.43 45.25,167.26 C6,212.61 75.3195,229.087 150.7195,235.177 " fill="none" id="UserFar-to-UserNear" style="stroke:#181818;stroke-width:1.0;"/><polygon fill="#181818" points="156.7,235.66,148.0512,230.9484,151.7162,235.2575,147.4072,238.9225,156.7,235.66" style="stroke:#181818;stroke-width:1.0;"/><text fill="#000000" font-family="sans-serif" font-size="13" lengthAdjust="spacing" textLength="189.8901" x="46.25" y="180.3269">User within 1 meter of mirror</text></g><!--link UserNear to UserFar--><g id="link_UserNear_UserFar"><path d="M271.3,213.95 C268.07,199.18 266.98,180.69 276.25,167.26 C284.93,154.7 291.6728,147.9699 305.0528,140.5499 " fill="none" id="UserNear-to-UserFar" style="stroke:#181818;stroke-width:1.0;"/><polygon fill="#181818" points="310.3,137.64,300.4893,138.5067,305.9274,140.0649,304.3692,145.5029,310.3,137.64" style="stroke:#181818;stroke-width:1.0;"/><text fill="#000000" font-family="sans-serif" font-size="13" lengthAdjust="spacing" textLength="255.2583" x="277.25" y="180.3269">User moves away (distance &gt; 1 meter)</text></g><!--link UserNear to TimerRunning--><g id="link_UserNear_TimerRunning"><path d="M312.43,264.9 C333.83,279.87 362.71,298.56 390.25,311.53 C414.65,323.01 436.3919,331.1526 461.9719,339.2826 " fill="none" id="UserNear-to-TimerRunning" style="stroke:#181818;stroke-width:1.0;"/><polygon fill="#181818" points="467.69,341.1,460.3244,334.5618,462.9249,339.5855,457.9012,342.186,467.69,341.1" style="stroke:#181818;stroke-width:1.0;"/><text fill="#000000" font-family="sans-serif" font-size="13" lengthAdjust="spacing" textLength="141.8193" x="391.25" y="307.5969">Start 15-minute timer</text></g><!--link TimerRunning to LightOff--><g id="link_TimerRunning_LightOff"><path d="M585.74,391.99 C601.32,406.02 621.57,423.8 640.25,438.79 C652.79,448.85 662.1007,455.8804 674.6507,464.9704 " fill="none" id="TimerRunning-to-LightOff" style="stroke:#181818;stroke-width:1.0;"/><polygon fill="#181818" points="679.51,468.49,674.5675,459.9711,675.4606,465.557,669.8747,466.4501,679.51,468.49" style="stroke:#181818;stroke-width:1.0;"/><text fill="#000000" font-family="sans-serif" font-size="13" lengthAdjust="spacing" textLength="201.9063" x="641.25" y="434.8569">Timer expires after 15 minutes</text></g><!--link TimerRunning to UserFar--><g id="link_TimerRunning_UserFar"><path d="M563.64,341.32 C569.48,301.01 575.1,219.66 537.25,167.26 C528.28,154.84 521.0062,148.0934 507.4362,140.6234 " fill="none" id="TimerRunning-to-UserFar" style="stroke:#181818;stroke-width:1.0;"/><polygon fill="#181818" points="502.18,137.73,508.1354,145.5743,506.5602,140.1412,511.9933,138.566,502.18,137.73" style="stroke:#181818;stroke-width:1.0;"/><text fill="#000000" font-family="sans-serif" font-size="13" lengthAdjust="spacing" textLength="255.2583" x="568.1" y="243.9669">User moves away (distance &gt; 1 meter)</text></g><!--link LightOff to UserFar--><g id="link_LightOff_UserFar"><path d="M766.72,485.88 C795.67,479.02 829.31,465.48 847.25,438.79 C903.08,355.81 896.79,290.67 832.25,214.26 C795.43,170.66 658.3609,143.6801 550.8709,128.4801 " fill="none" id="LightOff-to-UserFar" style="stroke:#181818;stroke-width:1.0;"/><polygon fill="#181818" points="544.93,127.64,553.2813,132.8607,549.8807,128.3401,554.4014,124.9395,544.93,127.64" style="stroke:#181818;stroke-width:1.0;"/><text fill="#000000" font-family="sans-serif" font-size="13" lengthAdjust="spacing" textLength="145.6978" x="884.22" y="307.5969">Reset to UserFar state</text></g><!--SRC=[bP2xRiCm34LtVmN79AW73rayPEnKj40UKz51QCYOG2K559sqVr_9afocGu5kVDrxBlYwUeEstS0Xe3mQQPfIzDC4E00P0H9lGGS4oo9UOF71fq7JrXCjgsOsUiRO58Shwy0EEh2eiVLKF38fNTvGBkbkc0V861t5HPAR5HDepnPbEph7xXHXEpMYqArRosvK14thUqMDMO3MNp20kPelM1mvg77l29kQTDaqFmbzvgMKKfWK7z6j8VF2tVM4UqhXNuYWQl7pp9AGb3xnb_I_IIkgpz3wCQ9vyyjsYm7ZcPz7qLJn6m00]--></g></svg>