<svg xmlns="http://www.w3.org/2000/svg" xmlns:xlink="http://www.w3.org/1999/xlink" contentStyleType="text/css" height="499px" preserveAspectRatio="none" style="width:542px;height:499px;background:#FFFFFF;" version="1.1" viewBox="0 0 542 499" width="542px" zoomAndPan="magnify"><defs/><g><line style="stroke:#181818;stroke-width:0.5;stroke-dasharray:5.0,5.0;" x1="23" x2="23" y1="81.2969" y2="418.625"/><line style="stroke:#181818;stroke-width:0.5;stroke-dasharray:5.0,5.0;" x1="206.1201" x2="206.1201" y1="81.2969" y2="418.625"/><line style="stroke:#181818;stroke-width:0.5;stroke-dasharray:5.0,5.0;" x1="338.3389" x2="338.3389" y1="81.2969" y2="418.625"/><line style="stroke:#181818;stroke-width:0.5;stroke-dasharray:5.0,5.0;" x1="514.874" x2="514.874" y1="81.2969" y2="418.625"/><text fill="#000000" font-family="sans-serif" font-size="14" lengthAdjust="spacing" textLength="31.9102" x="5" y="77.9951">User</text><ellipse cx="23.9551" cy="13.5" fill="#E2E2F0" rx="8" ry="8" style="stroke:#181818;stroke-width:0.5;"/><path d="M23.9551,21.5 L23.9551,48.5 M10.9551,29.5 L36.9551,29.5 M23.9551,48.5 L10.9551,63.5 M23.9551,48.5 L36.9551,63.5 " fill="none" style="stroke:#181818;stroke-width:0.5;"/><text fill="#000000" font-family="sans-serif" font-size="14" lengthAdjust="spacing" textLength="31.9102" x="5" y="430.6201">User</text><ellipse cx="23.9551" cy="442.4219" fill="#E2E2F0" rx="8" ry="8" style="stroke:#181818;stroke-width:0.5;"/><path d="M23.9551,450.4219 L23.9551,477.4219 M10.9551,458.4219 L36.9551,458.4219 M23.9551,477.4219 L10.9551,492.4219 M23.9551,477.4219 L36.9551,492.4219 " fill="none" style="stroke:#181818;stroke-width:0.5;"/><rect fill="#E2E2F0" height="30.2969" rx="2.5" ry="2.5" style="stroke:#181818;stroke-width:0.5;" width="99.8525" x="157.1201" y="50"/><text fill="#000000" font-family="sans-serif" font-size="14" lengthAdjust="spacing" textLength="85.8525" x="164.1201" y="69.9951">LightControl</text><rect fill="#E2E2F0" height="30.2969" rx="2.5" ry="2.5" style="stroke:#181818;stroke-width:0.5;" width="99.8525" x="157.1201" y="417.625"/><text fill="#000000" font-family="sans-serif" font-size="14" lengthAdjust="spacing" textLength="85.8525" x="164.1201" y="437.6201">LightControl</text><rect fill="#E2E2F0" height="30.2969" rx="2.5" ry="2.5" style="stroke:#181818;stroke-width:0.5;" width="105.3623" x="286.3389" y="50"/><text fill="#000000" font-family="sans-serif" font-size="14" lengthAdjust="spacing" textLength="91.3623" x="293.3389" y="69.9951">TimerControl</text><rect fill="#E2E2F0" height="30.2969" rx="2.5" ry="2.5" style="stroke:#181818;stroke-width:0.5;" width="105.3623" x="286.3389" y="417.625"/><text fill="#000000" font-family="sans-serif" font-size="14" lengthAdjust="spacing" textLength="91.3623" x="293.3389" y="437.6201">TimerControl</text><rect fill="#E2E2F0" height="30.2969" rx="2.5" ry="2.5" style="stroke:#181818;stroke-width:0.5;" width="42.2256" x="493.874" y="50"/><text fill="#000000" font-family="sans-serif" font-size="14" lengthAdjust="spacing" textLength="28.2256" x="500.874" y="69.9951">GVL</text><rect fill="#E2E2F0" height="30.2969" rx="2.5" ry="2.5" style="stroke:#181818;stroke-width:0.5;" width="42.2256" x="493.874" y="417.625"/><text fill="#000000" font-family="sans-serif" font-size="14" lengthAdjust="spacing" textLength="28.2256" x="500.874" y="437.6201">GVL</text><polygon fill="#181818" points="195.0464,108.4297,205.0464,112.4297,195.0464,116.4297,199.0464,112.4297" style="stroke:#181818;stroke-width:1.0;"/><line style="stroke:#181818;stroke-width:1.0;" x1="23.9551" x2="201.0464" y1="112.4297" y2="112.4297"/><text fill="#000000" font-family="sans-serif" font-size="13" lengthAdjust="spacing" textLength="142.1812" x="30.9551" y="107.3638">Moves towards mirror</text><polygon fill="#181818" points="502.9868,137.5625,512.9868,141.5625,502.9868,145.5625,506.9868,141.5625" style="stroke:#181818;stroke-width:1.0;"/><line style="stroke:#181818;stroke-width:1.0;" x1="207.0464" x2="508.9868" y1="141.5625" y2="141.5625"/><text fill="#000000" font-family="sans-serif" font-size="13" lengthAdjust="spacing" textLength="149.5762" x="214.0464" y="136.4966">Set lightStatus = TRUE</text><polygon fill="#181818" points="350.02,166.6953,340.02,170.6953,350.02,174.6953,346.02,170.6953" style="stroke:#181818;stroke-width:1.0;"/><line style="stroke:#181818;stroke-width:1.0;" x1="344.02" x2="513.9868" y1="170.6953" y2="170.6953"/><text fill="#000000" font-family="sans-serif" font-size="13" lengthAdjust="spacing" textLength="107.6182" x="356.02" y="165.6294">Read lightStatus</text><line style="stroke:#181818;stroke-width:1.0;" x1="339.02" x2="381.02" y1="199.8281" y2="199.8281"/><line style="stroke:#181818;stroke-width:1.0;" x1="381.02" x2="381.02" y1="199.8281" y2="212.8281"/><line style="stroke:#181818;stroke-width:1.0;" x1="340.02" x2="381.02" y1="212.8281" y2="212.8281"/><polygon fill="#181818" points="350.02,208.8281,340.02,212.8281,350.02,216.8281,346.02,212.8281" style="stroke:#181818;stroke-width:1.0;"/><text fill="#000000" font-family="sans-serif" font-size="13" lengthAdjust="spacing" textLength="121.145" x="346.02" y="194.7622">Timer is not active</text><polygon fill="#181818" points="195.0464,237.9609,205.0464,241.9609,195.0464,245.9609,199.0464,241.9609" style="stroke:#181818;stroke-width:1.0;"/><line style="stroke:#181818;stroke-width:1.0;" x1="23.9551" x2="201.0464" y1="241.9609" y2="241.9609"/><text fill="#000000" font-family="sans-serif" font-size="13" lengthAdjust="spacing" textLength="159.0913" x="30.9551" y="236.895">Moves away from mirror</text><polygon fill="#181818" points="502.9868,267.0938,512.9868,271.0938,502.9868,275.0938,506.9868,271.0938" style="stroke:#181818;stroke-width:1.0;"/><line style="stroke:#181818;stroke-width:1.0;" x1="207.0464" x2="508.9868" y1="271.0938" y2="271.0938"/><text fill="#000000" font-family="sans-serif" font-size="13" lengthAdjust="spacing" textLength="149.5762" x="214.0464" y="266.0278">Set lightStatus = TRUE</text><polygon fill="#181818" points="350.02,296.2266,340.02,300.2266,350.02,304.2266,346.02,300.2266" style="stroke:#181818;stroke-width:1.0;"/><line style="stroke:#181818;stroke-width:1.0;" x1="344.02" x2="513.9868" y1="300.2266" y2="300.2266"/><text fill="#000000" font-family="sans-serif" font-size="13" lengthAdjust="spacing" textLength="89.7813" x="356.02" y="295.1606">Start 5s timer</text><line style="stroke:#181818;stroke-width:1.0;" x1="339.02" x2="381.02" y1="329.3594" y2="329.3594"/><line style="stroke:#181818;stroke-width:1.0;" x1="381.02" x2="381.02" y1="329.3594" y2="342.3594"/><line style="stroke:#181818;stroke-width:1.0;" x1="340.02" x2="381.02" y1="342.3594" y2="342.3594"/><polygon fill="#181818" points="350.02,338.3594,340.02,342.3594,350.02,346.3594,346.02,342.3594" style="stroke:#181818;stroke-width:1.0;"/><text fill="#000000" font-family="sans-serif" font-size="13" lengthAdjust="spacing" textLength="161.9668" x="346.02" y="324.2935">Timer runs for 5 seconds</text><polygon fill="#181818" points="218.0464,367.4922,208.0464,371.4922,218.0464,375.4922,214.0464,371.4922" style="stroke:#181818;stroke-width:1.0;"/><line style="stroke:#181818;stroke-width:1.0;" x1="212.0464" x2="338.02" y1="371.4922" y2="371.4922"/><text fill="#000000" font-family="sans-serif" font-size="13" lengthAdjust="spacing" textLength="107.9736" x="224.0464" y="366.4263">Light off after 5s</text><polygon fill="#181818" points="502.9868,396.625,512.9868,400.625,502.9868,404.625,506.9868,400.625" style="stroke:#181818;stroke-width:1.0;"/><line style="stroke:#181818;stroke-width:1.0;" x1="207.0464" x2="508.9868" y1="400.625" y2="400.625"/><text fill="#000000" font-family="sans-serif" font-size="13" lengthAdjust="spacing" textLength="154.9526" x="214.0464" y="395.5591">Set lightStatus = FALSE</text><!--SRC=[hP4nZi8m44Lxd-9VW39Df4L22BO93G7wKMBlMY8UD3E0k3qsLI8Geg0Sl_V7NpPrneAzUd4d4ejTF54oDF7ltvQSJFWu0RiuU7a5VW-DSsKFPlD9lCQ6BrvXV2Nf5KCKON5ZfKHolaRh3SS2MYCxAtwms-vNBhEYZE-kiVNKZsKtni_wOq9K93PGP_7Yt_UbAzqGX8UlDSwA6Ahy5ENuexvoJegGVwY2-evJh-ufDot_cC0XW8Bb3PL-MdozQDhL7G00]--></g></svg>