<svg xmlns="http://www.w3.org/2000/svg" xmlns:xlink="http://www.w3.org/1999/xlink" contentStyleType="text/css" height="485px" preserveAspectRatio="none" style="width:838px;height:485px;background:#FFFFFF;" version="1.1" viewBox="0 0 838 485" width="838px" zoomAndPan="magnify"><defs/><g><rect fill="#FFFFFF" height="187.7969" style="stroke:#181818;stroke-width:1.0;" width="10" x="587.2734" y="96.5625"/><rect fill="#FFFFFF" height="158.6641" style="stroke:#181818;stroke-width:1.0;" width="10" x="648.9668" y="154.8281"/><rect fill="none" height="75.3984" style="stroke:#000000;stroke-width:1.5;" width="454.1768" x="237.0142" y="357.625"/><line style="stroke:#181818;stroke-width:0.5;stroke-dasharray:5.0,5.0;" x1="27" x2="27" y1="36.2969" y2="450.0234"/><line style="stroke:#181818;stroke-width:0.5;stroke-dasharray:5.0,5.0;" x1="301.0142" x2="301.0142" y1="36.2969" y2="450.0234"/><line style="stroke:#181818;stroke-width:0.5;stroke-dasharray:5.0,5.0;" x1="591.8042" x2="591.8042" y1="36.2969" y2="450.0234"/><line style="stroke:#181818;stroke-width:0.5;stroke-dasharray:5.0,5.0;" x1="653.7427" x2="653.7427" y1="36.2969" y2="450.0234"/><rect fill="#E2E2F0" height="30.2969" rx="2.5" ry="2.5" style="stroke:#181818;stroke-width:0.5;" width="45.9102" x="5" y="5"/><text fill="#000000" font-family="sans-serif" font-size="14" lengthAdjust="spacing" textLength="31.9102" x="12" y="24.9951">User</text><rect fill="#E2E2F0" height="30.2969" rx="2.5" ry="2.5" style="stroke:#181818;stroke-width:0.5;" width="45.9102" x="5" y="449.0234"/><text fill="#000000" font-family="sans-serif" font-size="14" lengthAdjust="spacing" textLength="31.9102" x="12" y="469.0186">User</text><rect fill="#E2E2F0" height="30.2969" rx="2.5" ry="2.5" style="stroke:#181818;stroke-width:0.5;" width="108.0078" x="247.0142" y="5"/><text fill="#000000" font-family="sans-serif" font-size="14" lengthAdjust="spacing" textLength="94.0078" x="254.0142" y="24.9951">MirrorSystem</text><rect fill="#E2E2F0" height="30.2969" rx="2.5" ry="2.5" style="stroke:#181818;stroke-width:0.5;" width="108.0078" x="247.0142" y="449.0234"/><text fill="#000000" font-family="sans-serif" font-size="14" lengthAdjust="spacing" textLength="94.0078" x="254.0142" y="469.0186">MirrorSystem</text><rect fill="#E2E2F0" height="30.2969" rx="2.5" ry="2.5" style="stroke:#181818;stroke-width:0.5;" width="48.9385" x="567.8042" y="5"/><text fill="#000000" font-family="sans-serif" font-size="14" lengthAdjust="spacing" textLength="34.9385" x="574.8042" y="24.9951">Light</text><rect fill="#E2E2F0" height="30.2969" rx="2.5" ry="2.5" style="stroke:#181818;stroke-width:0.5;" width="48.9385" x="567.8042" y="449.0234"/><text fill="#000000" font-family="sans-serif" font-size="14" lengthAdjust="spacing" textLength="34.9385" x="574.8042" y="469.0186">Light</text><rect fill="#E2E2F0" height="30.2969" rx="2.5" ry="2.5" style="stroke:#181818;stroke-width:0.5;" width="54.4482" x="626.7427" y="5"/><text fill="#000000" font-family="sans-serif" font-size="14" lengthAdjust="spacing" textLength="40.4482" x="633.7427" y="24.9951">Timer</text><rect fill="#E2E2F0" height="30.2969" rx="2.5" ry="2.5" style="stroke:#181818;stroke-width:0.5;" width="54.4482" x="626.7427" y="449.0234"/><text fill="#000000" font-family="sans-serif" font-size="14" lengthAdjust="spacing" textLength="40.4482" x="633.7427" y="469.0186">Timer</text><rect fill="#FFFFFF" height="187.7969" style="stroke:#181818;stroke-width:1.0;" width="10" x="587.2734" y="96.5625"/><rect fill="#FFFFFF" height="158.6641" style="stroke:#181818;stroke-width:1.0;" width="10" x="648.9668" y="154.8281"/><polygon fill="#181818" points="289.0181,63.4297,299.0181,67.4297,289.0181,71.4297,293.0181,67.4297" style="stroke:#181818;stroke-width:1.0;"/><line style="stroke:#181818;stroke-width:1.0;" x1="27.9551" x2="295.0181" y1="67.4297" y2="67.4297"/><text fill="#000000" font-family="sans-serif" font-size="13" lengthAdjust="spacing" textLength="132.5073" x="34.9551" y="62.3638">Walk towards mirror</text><polygon fill="#181818" points="575.2734,92.5625,585.2734,96.5625,575.2734,100.5625,579.2734,96.5625" style="stroke:#181818;stroke-width:1.0;"/><line style="stroke:#181818;stroke-width:1.0;" x1="301.0181" x2="581.2734" y1="96.5625" y2="96.5625"/><text fill="#000000" font-family="sans-serif" font-size="13" lengthAdjust="spacing" textLength="267.2554" x="308.0181" y="91.4966">Detect user within 1 meter, turn light ON</text><polygon fill="#181818" points="38.9551,121.6953,28.9551,125.6953,38.9551,129.6953,34.9551,125.6953" style="stroke:#181818;stroke-width:1.0;"/><line style="stroke:#181818;stroke-width:1.0;" x1="32.9551" x2="586.2734" y1="125.6953" y2="125.6953"/><text fill="#000000" font-family="sans-serif" font-size="13" lengthAdjust="spacing" textLength="71.0493" x="44.9551" y="120.6294">Light is ON</text><polygon fill="#181818" points="636.9668,150.8281,646.9668,154.8281,636.9668,158.8281,640.9668,154.8281" style="stroke:#181818;stroke-width:1.0;"/><line style="stroke:#181818;stroke-width:1.0;" x1="301.0181" x2="642.9668" y1="154.8281" y2="154.8281"/><text fill="#000000" font-family="sans-serif" font-size="13" lengthAdjust="spacing" textLength="141.8193" x="308.0181" y="149.7622">Start 15-minute timer</text><polygon fill="#181818" points="289.0181,179.9609,299.0181,183.9609,289.0181,187.9609,293.0181,183.9609" style="stroke:#181818;stroke-width:1.0;"/><line style="stroke:#181818;stroke-width:1.0;" x1="27.9551" x2="295.0181" y1="183.9609" y2="183.9609"/><text fill="#000000" font-family="sans-serif" font-size="13" lengthAdjust="spacing" textLength="146.1421" x="34.9551" y="178.895">User stays near mirror</text><line style="stroke:#181818;stroke-width:1.0;" x1="658.9668" x2="700.9668" y1="213.0938" y2="213.0938"/><line style="stroke:#181818;stroke-width:1.0;" x1="700.9668" x2="700.9668" y1="213.0938" y2="226.0938"/><line style="stroke:#181818;stroke-width:1.0;" x1="659.9668" x2="700.9668" y1="226.0938" y2="226.0938"/><polygon fill="#181818" points="669.9668,222.0938,659.9668,226.0938,669.9668,230.0938,665.9668,226.0938" style="stroke:#181818;stroke-width:1.0;"/><text fill="#000000" font-family="sans-serif" font-size="13" lengthAdjust="spacing" textLength="165.3882" x="665.9668" y="208.0278">Count down (15 minutes)</text><polygon fill="#181818" points="289.0181,251.2266,299.0181,255.2266,289.0181,259.2266,293.0181,255.2266" style="stroke:#181818;stroke-width:1.0;"/><line style="stroke:#181818;stroke-width:1.0;" x1="27.9551" x2="295.0181" y1="255.2266" y2="255.2266"/><text fill="#000000" font-family="sans-serif" font-size="13" lengthAdjust="spacing" textLength="249.063" x="34.9551" y="250.1606">User moves away (before 15 minutes)</text><polygon fill="#181818" points="580.2734,280.3594,590.2734,284.3594,580.2734,288.3594,584.2734,284.3594" style="stroke:#181818;stroke-width:1.0;"/><line style="stroke:#181818;stroke-width:1.0;" x1="301.0181" x2="586.2734" y1="284.3594" y2="284.3594"/><text fill="#000000" font-family="sans-serif" font-size="13" lengthAdjust="spacing" textLength="92.0283" x="308.0181" y="279.2935">Turn light OFF</text><polygon fill="#181818" points="641.9668,309.4922,651.9668,313.4922,641.9668,317.4922,645.9668,313.4922" style="stroke:#181818;stroke-width:1.0;"/><line style="stroke:#181818;stroke-width:1.0;" x1="301.0181" x2="647.9668" y1="313.4922" y2="313.4922"/><text fill="#000000" font-family="sans-serif" font-size="13" lengthAdjust="spacing" textLength="68.4023" x="308.0181" y="308.4263">Stop timer</text><polygon fill="#181818" points="38.9551,338.625,28.9551,342.625,38.9551,346.625,34.9551,342.625" style="stroke:#181818;stroke-width:1.0;"/><line style="stroke:#181818;stroke-width:1.0;" x1="32.9551" x2="300.0181" y1="342.625" y2="342.625"/><text fill="#000000" font-family="sans-serif" font-size="13" lengthAdjust="spacing" textLength="134.9194" x="44.9551" y="337.5591">Light is OFF, user far</text><path d="M237.0142,357.625 L301.457,357.625 L301.457,364.7578 L291.457,374.7578 L237.0142,374.7578 L237.0142,357.625 " fill="#EEEEEE" style="stroke:#000000;stroke-width:1.5;"/><rect fill="none" height="75.3984" style="stroke:#000000;stroke-width:1.5;" width="454.1768" x="237.0142" y="357.625"/><text fill="#000000" font-family="sans-serif" font-size="13" font-weight="bold" lengthAdjust="spacing" textLength="19.4429" x="252.0142" y="370.6919">alt</text><text fill="#000000" font-family="sans-serif" font-size="11" font-weight="bold" lengthAdjust="spacing" textLength="244.7822" x="316.457" y="369.8354">[User stays near mirror for 15 minutes]</text><polygon fill="#181818" points="312.0181,391.8906,302.0181,395.8906,312.0181,399.8906,308.0181,395.8906" style="stroke:#181818;stroke-width:1.0;"/><line style="stroke:#181818;stroke-width:1.0;" x1="306.0181" x2="652.9668" y1="395.8906" y2="395.8906"/><text fill="#000000" font-family="sans-serif" font-size="13" lengthAdjust="spacing" textLength="176.9346" x="318.0181" y="390.8247">Timer expires (15 minutes)</text><polygon fill="#181818" points="580.2734,421.0234,590.2734,425.0234,580.2734,429.0234,584.2734,425.0234" style="stroke:#181818;stroke-width:1.0;"/><line style="stroke:#181818;stroke-width:1.0;" x1="301.0181" x2="586.2734" y1="425.0234" y2="425.0234"/><text fill="#000000" font-family="sans-serif" font-size="13" lengthAdjust="spacing" textLength="92.0283" x="308.0181" y="419.9575">Turn light OFF</text><!--SRC=[ZP6zRiCm38HtFGN754W63rayT6dXgJz3KdHcRQOHQaa6HSVrsrUIqq1saQ0UD9nu9zxd3bbqhJkq0c-UM7MPyAoP7Uz6BsHc5q_wyoWpPQzDCAiO0PlxcRE4Tso_GDo0t7WmwKhb4z6H8aju9A5Qe8yvWvQZjb202IAlGNgsqCOvU7rHM8i-eT1vcNJ6eBX2EOcWVPnSFfLsBM4dONyejXkZRHzo95MunDvib5GlE7gmXFnRAdco9nvS7zWqRh2mAhOmFUJlRgOQTo8FEE08gmywE2R8hLUuxJCsLQKQMk2voi1rv-APPQg-j2p1LjLw-ay739ombIjK87J8AYW8tmNK7C0aqtUdEJ2O8Okk_tMFat_wasr-0000]--></g></svg>