<svg xmlns="http://www.w3.org/2000/svg" xmlns:xlink="http://www.w3.org/1999/xlink" contentStyleType="text/css" height="266px" preserveAspectRatio="none" style="width:852px;height:266px;background:#FFFFFF;" version="1.1" viewBox="0 0 852 266" width="852px" zoomAndPan="magnify"><defs/><g><line style="stroke:#181818;stroke-width:0.5;stroke-dasharray:5.0,5.0;" x1="94" x2="94" y1="36.2969" y2="231.0938"/><line style="stroke:#181818;stroke-width:0.5;stroke-dasharray:5.0,5.0;" x1="265.2866" x2="265.2866" y1="36.2969" y2="231.0938"/><line style="stroke:#181818;stroke-width:0.5;stroke-dasharray:5.0,5.0;" x1="481.8745" x2="481.8745" y1="36.2969" y2="231.0938"/><line style="stroke:#181818;stroke-width:0.5;stroke-dasharray:5.0,5.0;" x1="594.52" x2="594.52" y1="36.2969" y2="231.0938"/><line style="stroke:#181818;stroke-width:0.5;stroke-dasharray:5.0,5.0;" x1="822.2065" x2="822.2065" y1="36.2969" y2="231.0938"/><rect fill="#E2E2F0" height="30.2969" rx="2.5" ry="2.5" style="stroke:#181818;stroke-width:0.5;" width="178.4453" x="5" y="5"/><text fill="#000000" font-family="sans-serif" font-size="14" lengthAdjust="spacing" textLength="164.4453" x="12" y="24.9951">PresenceDetectionTask</text><rect fill="#E2E2F0" height="30.2969" rx="2.5" ry="2.5" style="stroke:#181818;stroke-width:0.5;" width="178.4453" x="5" y="230.0938"/><text fill="#000000" font-family="sans-serif" font-size="14" lengthAdjust="spacing" textLength="164.4453" x="12" y="250.0889">PresenceDetectionTask</text><rect fill="#E2E2F0" height="30.2969" rx="2.5" ry="2.5" style="stroke:#181818;stroke-width:0.5;" width="42.2256" x="244.2866" y="5"/><text fill="#000000" font-family="sans-serif" font-size="14" lengthAdjust="spacing" textLength="28.2256" x="251.2866" y="24.9951">GVL</text><rect fill="#E2E2F0" height="30.2969" rx="2.5" ry="2.5" style="stroke:#181818;stroke-width:0.5;" width="42.2256" x="244.2866" y="230.0938"/><text fill="#000000" font-family="sans-serif" font-size="14" lengthAdjust="spacing" textLength="28.2256" x="251.2866" y="250.0889">GVL</text><rect fill="#E2E2F0" height="30.2969" rx="2.5" ry="2.5" style="stroke:#181818;stroke-width:0.5;" width="156.6455" x="403.8745" y="5"/><text fill="#000000" font-family="sans-serif" font-size="14" lengthAdjust="spacing" textLength="142.6455" x="410.8745" y="24.9951">ToggleLightFunction</text><rect fill="#E2E2F0" height="30.2969" rx="2.5" ry="2.5" style="stroke:#181818;stroke-width:0.5;" width="156.6455" x="403.8745" y="230.0938"/><text fill="#000000" font-family="sans-serif" font-size="14" lengthAdjust="spacing" textLength="142.6455" x="410.8745" y="250.0889">ToggleLightFunction</text><rect fill="#E2E2F0" height="30.2969" rx="2.5" ry="2.5" style="stroke:#181818;stroke-width:0.5;" width="48.9385" x="570.52" y="5"/><text fill="#000000" font-family="sans-serif" font-size="14" lengthAdjust="spacing" textLength="34.9385" x="577.52" y="24.9951">Light</text><rect fill="#E2E2F0" height="30.2969" rx="2.5" ry="2.5" style="stroke:#181818;stroke-width:0.5;" width="48.9385" x="570.52" y="230.0938"/><text fill="#000000" font-family="sans-serif" font-size="14" lengthAdjust="spacing" textLength="34.9385" x="577.52" y="250.0889">Light</text><rect fill="#E2E2F0" height="30.2969" rx="2.5" ry="2.5" style="stroke:#181818;stroke-width:0.5;" width="45.9102" x="800.2065" y="5"/><text fill="#000000" font-family="sans-serif" font-size="14" lengthAdjust="spacing" textLength="31.9102" x="807.2065" y="24.9951">User</text><rect fill="#E2E2F0" height="30.2969" rx="2.5" ry="2.5" style="stroke:#181818;stroke-width:0.5;" width="45.9102" x="800.2065" y="230.0938"/><text fill="#000000" font-family="sans-serif" font-size="14" lengthAdjust="spacing" textLength="31.9102" x="807.2065" y="250.0889">User</text><polygon fill="#181818" points="253.3994,63.4297,263.3994,67.4297,253.3994,71.4297,257.3994,67.4297" style="stroke:#181818;stroke-width:1.0;"/><line style="stroke:#181818;stroke-width:1.0;" x1="94.2227" x2="259.3994" y1="67.4297" y2="67.4297"/><text fill="#000000" font-family="sans-serif" font-size="13" lengthAdjust="spacing" textLength="147.1768" x="101.2227" y="62.3638">Read distanceToMirror</text><polygon fill="#181818" points="470.1973,92.5625,480.1973,96.5625,470.1973,100.5625,474.1973,96.5625" style="stroke:#181818;stroke-width:1.0;"/><line style="stroke:#181818;stroke-width:1.0;" x1="94.2227" x2="476.1973" y1="96.5625" y2="96.5625"/><text fill="#000000" font-family="sans-serif" font-size="13" lengthAdjust="spacing" textLength="363.9746" x="101.2227" y="91.4966">Call ToggleLight(GVL.lightStatus, GVL.distanceToMirror)</text><polygon fill="#181818" points="105.2227,121.6953,95.2227,125.6953,105.2227,129.6953,101.2227,125.6953" style="stroke:#181818;stroke-width:1.0;"/><line style="stroke:#181818;stroke-width:1.0;" x1="99.2227" x2="481.1973" y1="125.6953" y2="125.6953"/><text fill="#000000" font-family="sans-serif" font-size="13" lengthAdjust="spacing" textLength="151.9756" x="111.2227" y="120.6294">Return new light status</text><polygon fill="#181818" points="253.3994,150.8281,263.3994,154.8281,253.3994,158.8281,257.3994,154.8281" style="stroke:#181818;stroke-width:1.0;"/><line style="stroke:#181818;stroke-width:1.0;" x1="94.2227" x2="259.3994" y1="154.8281" y2="154.8281"/><text fill="#000000" font-family="sans-serif" font-size="13" lengthAdjust="spacing" textLength="121.4497" x="101.2227" y="149.7622">Update lightStatus</text><polygon fill="#181818" points="582.9893,179.9609,592.9893,183.9609,582.9893,187.9609,586.9893,183.9609" style="stroke:#181818;stroke-width:1.0;"/><line style="stroke:#181818;stroke-width:1.0;" x1="94.2227" x2="588.9893" y1="183.9609" y2="183.9609"/><text fill="#000000" font-family="sans-serif" font-size="13" lengthAdjust="spacing" textLength="285.8604" x="101.2227" y="178.895">Toggle light ON or OFF based on lightStatus</text><polygon fill="#181818" points="811.1616,209.0938,821.1616,213.0938,811.1616,217.0938,815.1616,213.0938" style="stroke:#181818;stroke-width:1.0;"/><line style="stroke:#181818;stroke-width:1.0;" x1="594.9893" x2="817.1616" y1="213.0938" y2="213.0938"/><text fill="#000000" font-family="sans-serif" font-size="13" lengthAdjust="spacing" textLength="204.1724" x="601.9893" y="208.0278">Light status feedback (ON/OFF)</text><!--SRC=[XOyz3u8m48PtViMDaFYnCxXeS44m2kudFR61jAGzuj-NLWOm6BSsT-_plDUXOLd93XN3sP0bLT61c2gMMXLecw2RR1nlwUnVwBfkAPNravDU-SnixYT1i0Y6zSxnOhWG2X3ICWuhXJv9OxJvdLbmnh37jfrEme6yQTthoiYzNJdLvbiI1GimvrYKkwRS6mMANk3PO3tytu5b9v099dL-1toLU3nbjEGPQ0Dvai0TBGaOEavPFkAofIKJVmXZCtWGYJjM3OHvjXq8qHi0]--></g></svg>